<svg version="1.2" xmlns="http://www.w3.org/2000/svg" viewBox="0 0 100 100" width="100" height="100"><style>.a{fill:#797979}</style><path fill-rule="evenodd" class="a" d="m97.4 86.6c1.9 1.9 2.5 4.7 1.8 7.3-0.8 2.6-2.7 4.5-5.3 5.3-2.6 0.7-5.4 0.1-7.3-1.8l-23-22.9c-8.2 5.5-18.2 7.7-28 6.3-9.8-1.4-18.7-6.4-25-14.1-6.3-7.7-9.5-17.3-9.1-27.2 0.5-9.9 4.6-19.3 11.7-26.3 7-7.1 16.4-11.2 26.3-11.7 9.9-0.4 19.5 2.8 27.2 9.1 7.7 6.3 12.7 15.2 14.1 25 1.4 9.8-0.8 19.8-6.3 28zm-39.8-28.9c4.5-4.3 6.8-10.2 6.8-16.3 0-6.1-2.3-12-6.8-16.3-4.3-4.3-10.2-6.8-16.3-6.8-6.1 0-12 2.5-16.3 6.8-4.3 4.3-6.8 10.2-6.8 16.3 0 6.1 2.5 12 6.8 16.3 4.3 4.4 10.2 6.8 16.3 6.8 6.1 0 12-2.4 16.3-6.8z"/></svg>